<svg width="41" height="40" viewBox="0 0 41 40" fill="none" xmlns="http://www.w3.org/2000/svg">
<g clip-path="url(#clip0_9_287)">
<path d="M8.13702 13.0257C8.23134 13.5942 8.45056 13.9536 8.66723 14.1804C9.18214 17.6115 12.0498 20.7953 14.6728 20.7953C17.7292 20.7953 20.5128 17.3489 21.0481 14.1881C21.2698 13.9638 21.4916 13.6018 21.5885 13.0257C21.7618 12.3834 21.9861 11.2669 21.5936 10.7418C21.5732 10.7163 21.5502 10.6882 21.5298 10.6678C21.8994 9.31937 22.3659 6.53069 20.6963 4.63163C20.5484 4.443 19.6104 3.32396 17.6094 2.73258L16.6535 2.40375C15.0781 1.91687 14.0891 1.80726 14.0458 1.80217C13.9744 1.79707 13.9005 1.80217 13.8316 1.82001C13.7781 1.8353 13.5895 1.88629 13.4442 1.86589C13.0669 1.81236 12.501 2.00609 12.4016 2.04433C12.2716 2.09786 9.22038 3.31886 8.29506 6.16108C8.20839 6.39049 7.83878 7.59875 8.33075 10.5608C8.25683 10.6118 8.19055 10.6729 8.13447 10.7469C7.73682 11.2669 7.96113 12.3834 8.13702 13.0257Z" fill="white"/>
<path d="M20.342 34.652C19.7786 34.3359 19.1668 34.0326 18.5143 33.7446C18.1982 33.6044 17.877 33.4718 17.5584 33.3469C17.3086 33.2526 17.0129 33.1302 16.8064 33.0767L13.7832 32.261L19.4396 20.7443L21.8638 22.2737C22.3761 22.5949 22.7534 22.8677 23.1663 23.171L23.253 23.2347C23.6634 23.5381 24.0661 23.8491 24.4613 24.1703C25.3203 24.8636 26.0799 25.5416 26.786 26.2426C26.8395 26.2962 26.8905 26.3446 26.944 26.3981C27.1811 26.1356 27.4131 25.9011 27.645 25.6487C27.3494 24.7693 26.9899 23.9561 26.5515 23.3036C26.5515 23.3036 25.9295 22.4547 24.4536 21.8888C24.4536 21.8888 24.3287 21.8506 24.1375 21.7869C22.8248 21.1725 21.5783 20.7774 21.5783 20.7774C21.3106 20.6806 21.0761 20.5863 20.8645 20.4945C19.9723 20.0535 19.2306 19.5564 19.0776 19.0874C19.0776 19.0874 19.5925 24.0708 15.2362 24.1881L14.6295 24.1601C10.681 23.8083 10.4184 19.0772 10.4184 19.0772C10.0055 20.3747 5.03989 21.8837 5.03989 21.8837C3.56398 22.4496 2.93946 23.301 2.93946 23.301C0.757456 26.5383 0.5 33.742 0.5 33.742C0.52804 35.3887 1.23923 35.5595 1.23923 35.5595C6.25835 37.8001 14.1324 38.1952 14.1324 38.1952C14.5581 38.2054 14.9532 38.1825 15.3483 38.1595L15.3585 38.2003C15.3585 38.2003 19.2025 38.0041 23.2326 37.1221L22.7406 36.4772C22.3404 35.9495 21.4457 35.2689 20.342 34.652Z" fill="white"/>
<path d="M18.9094 19.299C18.9629 19.2302 19.0216 19.1613 19.0776 19.0849C19.0649 19.039 19.0623 19.0161 19.0623 19.0161C19.0139 19.1155 18.9578 19.1996 18.9094 19.299Z" fill="white"/>
<path d="M10.4414 19.0696L10.4286 19.0161L10.4184 19.0721C10.421 19.0619 10.4312 19.0517 10.4337 19.0415C10.4337 19.0415 10.4388 19.0543 10.4414 19.0696Z" fill="white"/>
<path d="M35.8862 21.3815C34.4561 22.391 33.123 23.533 31.8535 24.7336C30.5816 25.9418 29.3758 27.2138 28.216 28.5266C27.7852 29.016 27.3672 29.5105 26.9517 30.0076C26.9466 30 26.9415 29.9923 26.9389 29.9847C26.3272 29.169 25.6644 28.4425 24.9762 27.7619C24.2879 27.0838 23.5742 26.4567 22.84 25.8603C22.4704 25.5646 22.0983 25.274 21.7184 24.9885C21.3233 24.703 20.9767 24.4455 20.4923 24.1396L17.4793 30.2702C17.7546 30.3441 18.1548 30.4996 18.4939 30.6321C18.8533 30.7698 19.2051 30.9176 19.5568 31.0731C20.2604 31.3841 20.9461 31.7231 21.6012 32.0876C22.8961 32.8116 24.1018 33.6936 24.7901 34.5934L27.1072 37.6319L28.4403 34.7412C29.1107 33.2933 29.9137 31.7792 30.7371 30.3364C31.568 28.8835 32.4551 27.4585 33.4161 26.0846C34.3771 24.7106 35.4069 23.3826 36.5591 22.159C37.7113 20.9431 38.9833 19.8113 40.5 19.0084C38.8533 19.4978 37.3136 20.3823 35.8862 21.3815Z" fill="white"/>
</g>
<defs>
<clipPath id="clip0_9_287">
<rect width="40" height="40" fill="white" transform="translate(0.5)"/>
</clipPath>
</defs>
</svg>
