<svg width="20" height="21" viewBox="0 0 20 21" fill="none" xmlns="http://www.w3.org/2000/svg">
<path d="M10.1071 0C8.0645 0 6.1056 0.811403 4.66129 2.25571C3.21698 3.70002 2.40558 5.65892 2.40558 7.70148V11.583C2.40574 11.7537 2.36619 11.9221 2.29006 12.0748L0.400997 15.8518C0.308718 16.0364 0.265145 16.2414 0.274416 16.4475C0.283687 16.6536 0.345494 16.8539 0.453967 17.0294C0.56244 17.2049 0.713977 17.3498 0.894185 17.4502C1.07439 17.5507 1.27729 17.6034 1.4836 17.6034H18.7305C18.9368 17.6034 19.1397 17.5507 19.3199 17.4502C19.5001 17.3498 19.6517 17.2049 19.7601 17.0294C19.8686 16.8539 19.9304 16.6536 19.9397 16.4475C19.949 16.2414 19.9054 16.0364 19.8131 15.8518L17.9252 12.0748C17.8486 11.9222 17.8087 11.7538 17.8085 11.583V7.70148C17.8085 5.65892 16.9971 3.70002 15.5528 2.25571C14.1085 0.811403 12.1496 0 10.1071 0ZM10.1071 20.904C9.42421 20.9044 8.75806 20.6929 8.20041 20.2988C7.64277 19.9047 7.22108 19.3474 6.99346 18.7036H13.2207C12.993 19.3474 12.5713 19.9047 12.0137 20.2988C11.4561 20.6929 10.7899 20.9044 10.1071 20.904Z" fill="#404040"/>
</svg>
