<svg width="25" height="24" viewBox="0 0 25 24" fill="none" xmlns="http://www.w3.org/2000/svg">
<path d="M7.14828 0.888889C7.14828 0.653141 7.05463 0.427049 6.88793 0.26035C6.72123 0.0936505 6.49514 0 6.25939 0C6.02364 0 5.79755 0.0936505 5.63085 0.26035C5.46415 0.427049 5.3705 0.653141 5.3705 0.888889V2.76148C3.66383 2.89778 2.54502 3.232 1.7225 4.0557C0.898797 4.87822 0.564575 5.99822 0.427094 7.7037H23.9435C23.8061 5.99704 23.4718 4.87822 22.6481 4.0557C21.8256 3.232 20.7056 2.89778 19.0001 2.7603V0.888889C19.0001 0.653141 18.9065 0.427049 18.7398 0.26035C18.5731 0.0936505 18.347 0 18.1112 0C17.8755 0 17.6494 0.0936505 17.4827 0.26035C17.316 0.427049 17.2223 0.653141 17.2223 0.888889V2.68207C16.4342 2.66667 15.5501 2.66667 14.5557 2.66667H9.81494C8.82057 2.66667 7.93643 2.66667 7.14828 2.68207V0.888889Z" fill="#404040"/>
<path fill-rule="evenodd" clip-rule="evenodd" d="M0.333344 12.1481C0.333344 11.1538 0.333344 10.2696 0.348751 9.48148H24.0216C24.037 10.2696 24.037 11.1538 24.037 12.1481V14.5185C24.037 18.9878 24.037 21.2231 22.648 22.611C21.2602 24 19.0249 24 14.5556 24H9.81482C5.34549 24 3.11023 24 1.72238 22.611C0.333343 21.2231 0.333344 18.9878 0.333344 14.5185V12.1481ZM18.1111 14.5185C18.4254 14.5185 18.7269 14.3936 18.9492 14.1714C19.1714 13.9491 19.2963 13.6477 19.2963 13.3333C19.2963 13.019 19.1714 12.7175 18.9492 12.4953C18.7269 12.273 18.4254 12.1481 18.1111 12.1481C17.7968 12.1481 17.4953 12.273 17.2731 12.4953C17.0508 12.7175 16.9259 13.019 16.9259 13.3333C16.9259 13.6477 17.0508 13.9491 17.2731 14.1714C17.4953 14.3936 17.7968 14.5185 18.1111 14.5185ZM18.1111 19.2593C18.4254 19.2593 18.7269 19.1344 18.9492 18.9121C19.1714 18.6899 19.2963 18.3884 19.2963 18.0741C19.2963 17.7597 19.1714 17.4583 18.9492 17.236C18.7269 17.0137 18.4254 16.8889 18.1111 16.8889C17.7968 16.8889 17.4953 17.0137 17.2731 17.236C17.0508 17.4583 16.9259 17.7597 16.9259 18.0741C16.9259 18.3884 17.0508 18.6899 17.2731 18.9121C17.4953 19.1344 17.7968 19.2593 18.1111 19.2593ZM13.3704 13.3333C13.3704 13.6477 13.2455 13.9491 13.0232 14.1714C12.801 14.3936 12.4995 14.5185 12.1852 14.5185C11.8709 14.5185 11.5694 14.3936 11.3471 14.1714C11.1249 13.9491 11 13.6477 11 13.3333C11 13.019 11.1249 12.7175 11.3471 12.4953C11.5694 12.273 11.8709 12.1481 12.1852 12.1481C12.4995 12.1481 12.801 12.273 13.0232 12.4953C13.2455 12.7175 13.3704 13.019 13.3704 13.3333ZM13.3704 18.0741C13.3704 18.3884 13.2455 18.6899 13.0232 18.9121C12.801 19.1344 12.4995 19.2593 12.1852 19.2593C11.8709 19.2593 11.5694 19.1344 11.3471 18.9121C11.1249 18.6899 11 18.3884 11 18.0741C11 17.7597 11.1249 17.4583 11.3471 17.236C11.5694 17.0137 11.8709 16.8889 12.1852 16.8889C12.4995 16.8889 12.801 17.0137 13.0232 17.236C13.2455 17.4583 13.3704 17.7597 13.3704 18.0741ZM6.25927 14.5185C6.5736 14.5185 6.87506 14.3936 7.09732 14.1714C7.31959 13.9491 7.44445 13.6477 7.44445 13.3333C7.44445 13.019 7.31959 12.7175 7.09732 12.4953C6.87506 12.273 6.5736 12.1481 6.25927 12.1481C5.94494 12.1481 5.64348 12.273 5.42122 12.4953C5.19895 12.7175 5.07408 13.019 5.07408 13.3333C5.07408 13.6477 5.19895 13.9491 5.42122 14.1714C5.64348 14.3936 5.94494 14.5185 6.25927 14.5185ZM6.25927 19.2593C6.5736 19.2593 6.87506 19.1344 7.09732 18.9121C7.31959 18.6899 7.44445 18.3884 7.44445 18.0741C7.44445 17.7597 7.31959 17.4583 7.09732 17.236C6.87506 17.0137 6.5736 16.8889 6.25927 16.8889C5.94494 16.8889 5.64348 17.0137 5.42122 17.236C5.19895 17.4583 5.07408 17.7597 5.07408 18.0741C5.07408 18.3884 5.19895 18.6899 5.42122 18.9121C5.64348 19.1344 5.94494 19.2593 6.25927 19.2593Z" fill="#404040"/>
</svg>
