<svg width="41" height="40" viewBox="0 0 41 40" fill="none" xmlns="http://www.w3.org/2000/svg">
<g clip-path="url(#clip0_9_397)">
<path d="M33 20.876C32.2965 20.7138 31.5653 20.625 30.8125 20.625C30.6021 20.625 30.3943 20.6341 30.1875 20.6472C25.4928 20.9466 21.7087 24.5878 21.1881 29.2188C21.1478 29.5779 21.125 29.9425 21.125 30.3125C21.125 31.0094 21.2003 31.6885 21.34 32.3438C22.2738 36.7185 26.1591 40 30.8125 40C36.1628 40 40.5 35.6628 40.5 30.3125C40.5 25.715 37.2962 21.8681 33 20.876ZM30.8125 36.7188C27.2743 36.7188 24.4062 33.8506 24.4062 30.3125C24.4062 26.7744 27.2743 23.9062 30.8125 23.9062C34.3506 23.9062 37.2187 26.7744 37.2187 30.3125C37.2187 33.8506 34.3506 36.7188 30.8125 36.7188Z" fill="white"/>
<path d="M33.4706 26.4912L31.04 28.9219L28.6094 26.4912L27.0625 28.0381L29.4932 30.4687L27.0625 32.8993L28.6094 34.4462L31.04 32.0156L33.4706 34.4462L35.0175 32.8993L32.5869 30.4687L35.0175 28.0381L33.4706 26.4912Z" fill="white"/>
<path d="M7.68754 0C7.0844 0 6.59381 0.490654 6.59381 1.09373V3.59373V6.25C6.59381 6.85314 7.0844 7.34373 7.68754 7.34373H8.62505C9.22819 7.34373 9.71878 6.85307 9.71878 6.25V3.59373V1.09373C9.71878 0.490654 9.22819 0 8.62499 0H7.68754Z" fill="white"/>
<path d="M24.875 7.34373H25.8126C26.4157 7.34373 26.9063 6.85307 26.9063 6.25V3.59373V1.09373C26.9063 0.490654 26.4156 0 25.8125 0H24.875C24.2718 0 23.7813 0.490654 23.7813 1.09373V3.59373V6.25C23.7812 6.85314 24.2719 7.34373 24.875 7.34373Z" fill="white"/>
<path d="M3 32.3438H18.1563C18.0038 31.5856 17.9228 30.8022 17.9228 30C17.9228 29.7372 17.9344 29.4772 17.9512 29.2188H5.18752C4.1519 29.2188 3.31248 28.3794 3.31248 27.3438V12.3438H30.1875V18.1416C30.3944 18.1309 30.6028 18.1251 30.8125 18.1251C31.56 18.1251 32.2903 18.1975 33 18.3304V6.09375C33 4.7131 31.8807 3.59375 30.5 3.59375H28.4688V6.25002C28.4688 7.71473 27.2773 8.9063 25.8125 8.9063H24.875C23.4103 8.9063 22.2187 7.71473 22.2187 6.25002V3.59375H11.2812V6.25002C11.2812 7.71473 10.0897 8.9063 8.62497 8.9063H7.68745C6.22275 8.9063 5.03118 7.71473 5.03118 6.25002V3.59375H3C1.61935 3.59375 0.5 4.71316 0.5 6.09375V29.8438C0.5 31.2244 1.61935 32.3438 3 32.3438Z" fill="white"/>
<path d="M9.30878 19.5119C10.6788 19.5119 11.7894 18.4013 11.7894 17.0313C11.7894 15.6612 10.6788 14.5506 9.30878 14.5506C7.93875 14.5506 6.82812 15.6612 6.82812 17.0313C6.82812 18.4013 7.93875 19.5119 9.30878 19.5119Z" fill="white"/>
<path d="M16.75 19.5119C18.12 19.5119 19.2307 18.4013 19.2307 17.0313C19.2307 15.6612 18.12 14.5506 16.75 14.5506C15.38 14.5506 14.2693 15.6612 14.2693 17.0313C14.2693 18.4013 15.38 19.5119 16.75 19.5119Z" fill="white"/>
<path d="M24.1913 19.5119C25.5613 19.5119 26.6719 18.4013 26.6719 17.0313C26.6719 15.6612 25.5613 14.5506 24.1913 14.5506C22.8213 14.5506 21.7106 15.6612 21.7106 17.0313C21.7106 18.4013 22.8213 19.5119 24.1913 19.5119Z" fill="white"/>
<path d="M16.75 27.0118C18.12 27.0118 19.2306 25.9012 19.2306 24.5312C19.2306 23.1613 18.12 22.0507 16.75 22.0507C15.38 22.0507 14.2694 23.1613 14.2694 24.5312C14.2694 25.9012 15.38 27.0118 16.75 27.0118Z" fill="white"/>
<path d="M9.30877 27.0118C10.6788 27.0118 11.7894 25.9012 11.7894 24.5312C11.7894 23.1613 10.6788 22.0507 9.30877 22.0507C7.93878 22.0507 6.82819 23.1613 6.82819 24.5312C6.82819 25.9012 7.93878 27.0118 9.30877 27.0118Z" fill="white"/>
</g>
<defs>
<clipPath id="clip0_9_397">
<rect width="40" height="40" fill="white" transform="translate(0.5)"/>
</clipPath>
</defs>
</svg>
