<svg width="39" height="40" viewBox="0 0 39 40" fill="none" xmlns="http://www.w3.org/2000/svg">
<path d="M17.1562 7.03125V0.686646L10.8116 7.03125H17.1562Z" fill="white"/>
<path d="M19.5 9.375H10.125V14.1809C14.0898 14.7556 17.1562 18.1442 17.1562 22.2656C17.1562 25.1486 15.653 27.6779 13.3971 29.1412C15.9359 30.3308 17.903 32.4942 18.8521 35.1562H38.25V0H19.5V9.375ZM33.5625 30.4688H19.5V28.125H33.5625V30.4688ZM33.5625 25.7812H19.5V23.4375H33.5625V25.7812ZM27.7031 14.0625C25.7646 14.0625 24.1875 12.4854 24.1875 10.5469C24.1875 9.021 25.1702 7.73254 26.5312 7.24701V4.6875H28.875V7.24701C30.2361 7.73254 31.2188 9.021 31.2188 10.5469H28.875C28.875 9.90021 28.3498 9.375 27.7031 9.375C27.0565 9.375 26.5312 9.90021 26.5312 10.5469C26.5312 11.1935 27.0565 11.7188 27.7031 11.7188C29.6416 11.7188 31.2188 13.2959 31.2188 15.2344C31.2188 16.7603 30.2361 18.0487 28.875 18.5342V21.0938H26.5312V18.5342C25.1702 18.0487 24.1875 16.7603 24.1875 15.2344H26.5312C26.5312 15.881 27.0565 16.4062 27.7031 16.4062C28.3498 16.4062 28.875 15.881 28.875 15.2344C28.875 14.5877 28.3498 14.0625 27.7031 14.0625Z" fill="white"/>
<path d="M14.8125 22.2656C14.8125 25.5017 12.1892 28.125 8.95312 28.125C5.71704 28.125 3.09375 25.5017 3.09375 22.2656C3.09375 19.0295 5.71704 16.4062 8.95312 16.4062C12.1892 16.4062 14.8125 19.0295 14.8125 22.2656Z" fill="white"/>
<path d="M8.95312 30.4688C4.42279 30.4688 0.75 34.2197 0.75 38.75V40H17.1562V38.75C17.1562 34.2197 13.4835 30.4688 8.95312 30.4688Z" fill="white"/>
</svg>
