<svg width="41" height="40" viewBox="0 0 41 40" fill="none" xmlns="http://www.w3.org/2000/svg">
<path d="M11.9065 13.018H15.6165L13.7605 8.524L11.9065 13.018ZM5.51251 0C4.12013 0 2.78477 0.553123 1.8002 1.53769C0.815635 2.52226 0.262512 3.85761 0.262512 5.25V30.75C0.262512 33.65 2.61251 36 5.51251 36H18.7815C17.4432 33.9109 16.7337 31.481 16.7375 29C16.7375 27.416 17.0205 25.899 17.5395 24.496H5.51251C5.18099 24.496 4.86305 24.3643 4.62863 24.1299C4.39421 23.8955 4.26251 23.5775 4.26251 23.246C4.26251 22.9145 4.39421 22.5965 4.62863 22.3621C4.86305 22.1277 5.18099 21.996 5.51251 21.996H18.7845C19.9595 20.1569 21.579 18.6436 23.4933 17.5956C25.4076 16.5477 27.5551 15.9989 29.7375 16C32.1155 16 34.3445 16.639 36.2625 17.754V5.25C36.2625 2.35 33.9125 0 31.0125 0H5.51251ZM4.26251 29.25C4.26251 28.56 4.82251 28 5.51251 28H13.5205C13.852 28 14.17 28.1317 14.4044 28.3661C14.6388 28.6005 14.7705 28.9185 14.7705 29.25C14.7705 29.5815 14.6388 29.8995 14.4044 30.1339C14.17 30.3683 13.852 30.5 13.5205 30.5H5.51251C4.82251 30.5 4.26251 29.94 4.26251 29.25ZM13.7605 3.998C14.2665 3.998 14.7225 4.303 14.9155 4.771L19.6675 16.277C19.7846 16.5815 19.778 16.9196 19.6491 17.2193C19.5203 17.519 19.2794 17.7564 18.9779 17.8809C18.6764 18.0054 18.3382 18.0072 18.0354 17.8857C17.7327 17.7643 17.4894 17.5293 17.3575 17.231L16.6495 15.518H10.8745L10.1675 17.231C10.1077 17.3866 10.0173 17.5287 9.90172 17.6489C9.78614 17.7691 9.64769 17.8649 9.4945 17.9308C9.34132 17.9966 9.17651 18.0312 9.00977 18.0324C8.84303 18.0336 8.67774 18.0014 8.52363 17.9378C8.36951 17.8741 8.22969 17.7803 8.11239 17.6618C7.99509 17.5433 7.90268 17.4025 7.84061 17.2478C7.77854 17.093 7.74806 16.9274 7.75096 16.7607C7.75386 16.594 7.79009 16.4295 7.85751 16.277L12.6045 4.771C12.699 4.54216 12.8593 4.34652 13.0651 4.20891C13.2709 4.07129 13.5129 3.99788 13.7605 3.998ZM26.0105 3.998C26.7005 3.998 27.2605 4.558 27.2605 5.248V8H30.0125C30.344 8 30.662 8.1317 30.8964 8.36612C31.1308 8.60054 31.2625 8.91848 31.2625 9.25C31.2625 9.58152 31.1308 9.89946 30.8964 10.1339C30.662 10.3683 30.344 10.5 30.0125 10.5H27.2605V13.248C27.2605 13.5795 27.1288 13.8975 26.8944 14.1319C26.66 14.3663 26.342 14.498 26.0105 14.498C25.679 14.498 25.361 14.3663 25.1266 14.1319C24.8922 13.8975 24.7605 13.5795 24.7605 13.248V10.5H22.0125C21.681 10.5 21.363 10.3683 21.1286 10.1339C20.8942 9.89946 20.7625 9.58152 20.7625 9.25C20.7625 8.91848 20.8942 8.60054 21.1286 8.36612C21.363 8.1317 21.681 8 22.0125 8H24.7605V5.248C24.7605 4.558 25.3205 3.998 26.0105 3.998ZM40.7375 29C40.7375 35.075 35.8125 40 29.7375 40C23.6625 40 18.7375 35.075 18.7375 29C18.7375 22.925 23.6625 18 29.7375 18C35.8125 18 40.7375 22.925 40.7375 29ZM30.7375 22C30.7375 21.7348 30.6322 21.4804 30.4446 21.2929C30.2571 21.1054 30.0027 21 29.7375 21C29.4723 21 29.2179 21.1054 29.0304 21.2929C28.8429 21.4804 28.7375 21.7348 28.7375 22V28H22.7375C22.4723 28 22.2179 28.1054 22.0304 28.2929C21.8429 28.4804 21.7375 28.7348 21.7375 29C21.7375 29.2652 21.8429 29.5196 22.0304 29.7071C22.2179 29.8946 22.4723 30 22.7375 30H28.7375V36C28.7375 36.2652 28.8429 36.5196 29.0304 36.7071C29.2179 36.8946 29.4723 37 29.7375 37C30.0027 37 30.2571 36.8946 30.4446 36.7071C30.6322 36.5196 30.7375 36.2652 30.7375 36V30H36.7375C37.0027 30 37.2571 29.8946 37.4446 29.7071C37.6322 29.5196 37.7375 29.2652 37.7375 29C37.7375 28.7348 37.6322 28.4804 37.4446 28.2929C37.2571 28.1054 37.0027 28 36.7375 28H30.7375V22Z" fill="#F8F8F8"/>
</svg>
