<svg width="26" height="26" viewBox="0 0 26 26" fill="none" xmlns="http://www.w3.org/2000/svg">
<path d="M12.5413 7.6668H18.4051M12.5413 13H18.4051M12.5413 18.3332H18.4051M7.8373 8.46723C8.04959 8.46723 8.25318 8.3829 8.40329 8.23279C8.5534 8.08268 8.63773 7.87908 8.63773 7.6668C8.63773 7.45451 8.5534 7.25091 8.40329 7.1008C8.25318 6.95069 8.04959 6.86636 7.8373 6.86636C7.62501 6.86636 7.42142 6.95069 7.27131 7.1008C7.1212 7.25091 7.03687 7.45451 7.03687 7.6668C7.03687 7.87908 7.1212 8.08268 7.27131 8.23279C7.42142 8.3829 7.62501 8.46723 7.8373 8.46723ZM7.8373 13.8004C8.04959 13.8004 8.25318 13.7161 8.40329 13.566C8.5534 13.4159 8.63773 13.2123 8.63773 13C8.63773 12.7877 8.5534 12.5841 8.40329 12.434C8.25318 12.2839 8.04959 12.1996 7.8373 12.1996C7.62501 12.1996 7.42142 12.2839 7.27131 12.434C7.1212 12.5841 7.03687 12.7877 7.03687 13C7.03687 13.2123 7.1212 13.4159 7.27131 13.566C7.42142 13.7161 7.62501 13.8004 7.8373 13.8004ZM7.8373 19.1336C8.04959 19.1336 8.25318 19.0493 8.40329 18.8992C8.5534 18.7491 8.63773 18.5455 8.63773 18.3332C8.63773 18.1209 8.5534 17.9173 8.40329 17.7672C8.25318 17.6171 8.04959 17.5327 7.8373 17.5327C7.62501 17.5327 7.42142 17.6171 7.27131 17.7672C7.1212 17.9173 7.03687 18.1209 7.03687 18.3332C7.03687 18.5455 7.1212 18.7491 7.27131 18.8992C7.42142 19.0493 7.62501 19.1336 7.8373 19.1336Z" stroke="black" stroke-width="1.5" stroke-linecap="round" stroke-linejoin="round"/>
<path d="M17.1571 1H8.7247C4.42584 1 0.940918 4.48492 0.940918 8.78378V17.2162C0.940918 21.5151 4.42584 25 8.7247 25H17.1571C21.456 25 24.9409 21.5151 24.9409 17.2162V8.78378C24.9409 4.48492 21.456 1 17.1571 1Z" stroke="black" stroke-width="1.5"/>
</svg>
