<svg width="41" height="40" viewBox="0 0 41 40" fill="none" xmlns="http://www.w3.org/2000/svg">
<g clip-path="url(#clip0_9_435)">
<path d="M15.4107 15.7143C15.4107 13.0415 13.9881 10.6952 11.8607 9.39135C15.3211 6.01126 12.8911 -0.0101657 7.99992 1.28878e-05C3.10903 -0.0101657 0.678759 6.01216 4.13929 9.39135C2.01188 10.6951 0.589294 13.0415 0.589294 15.7143V20.625H15.4107V15.7143ZM5.18751 5.49109C5.18751 3.94028 6.44921 2.67858 8.00001 2.67858C11.7312 2.83305 11.7301 8.14966 8.00001 8.30359C6.44921 8.30359 5.18751 7.04189 5.18751 5.49109ZM12.7322 17.9464H3.26787V15.7143C3.26787 13.1049 5.39063 10.9822 8.00001 10.9822C10.6094 10.9822 12.7322 13.1049 12.7322 15.7143V17.9464Z" fill="white"/>
<path d="M36.8607 28.7664C40.3211 25.3863 37.8911 19.3648 32.9999 19.375C28.109 19.3647 25.6788 25.3872 29.1393 28.7664C27.0119 30.0701 25.5893 32.4165 25.5893 35.0893V40H40.4107V35.0893C40.4107 32.4165 38.9881 30.0701 36.8607 28.7664ZM30.1875 24.8661C30.1875 23.3153 31.4492 22.0536 33 22.0536C36.7312 22.208 36.7301 27.5247 33 27.6786C31.4492 27.6786 30.1875 26.4169 30.1875 24.8661ZM37.7322 37.3214H28.2679V35.0893C28.2679 32.4799 30.3906 30.3572 33 30.3572C35.6094 30.3572 37.7322 32.4799 37.7322 35.0893V37.3214Z" fill="white"/>
<path d="M26.5763 7.58929C29.3798 7.58929 31.6607 9.87018 31.6607 12.6738V16.6964H34.3393V12.6738C34.3393 8.39322 30.8568 4.91072 26.5763 4.91072H23.0914L25.0356 2.4342L22.9287 0.78009L18.5295 6.38393L22.9287 11.9878L25.0356 10.3338L22.8811 7.58929H26.5763Z" fill="white"/>
<path d="M15.9644 30.1128L18.1189 32.8571H14.4238C11.6202 32.8571 9.33931 30.5762 9.33931 27.7727V23.75H6.66074V27.7727C6.66074 32.0532 10.1432 35.5357 14.4238 35.5357H17.9086L15.9644 38.0122L18.0714 39.6663L22.4706 34.0625L18.0714 28.4587L15.9644 30.1128Z" fill="white"/>
</g>
<defs>
<clipPath id="clip0_9_435">
<rect width="40" height="40" fill="white" transform="translate(0.5)"/>
</clipPath>
</defs>
</svg>
