<svg width="37" height="40" viewBox="0 0 37 40" fill="none" xmlns="http://www.w3.org/2000/svg">
<path d="M5.55885 0C4.31077 0 3.11381 0.495797 2.23129 1.37832C1.34876 2.26084 0.852966 3.4578 0.852966 4.70588V32.9412C0.852966 34.1893 1.34876 35.3862 2.23129 36.2687C3.11381 37.1513 4.31077 37.6471 5.55885 37.6471H15.5753C14.976 36.9213 14.4576 36.1323 14.0294 35.2941H5.55885C4.93481 35.2941 4.33633 35.0462 3.89507 34.605C3.45381 34.1637 3.20591 33.5652 3.20591 32.9412H13.1047C12.4754 30.7246 12.4494 28.3802 13.0292 26.1502C13.6091 23.9201 14.7738 21.8854 16.4031 20.2561C18.0324 18.6267 20.0672 17.462 22.2972 16.8822C24.5273 16.3023 26.8717 16.3284 29.0883 16.9576V4.70588C29.0883 3.4578 28.5925 2.26084 27.7099 1.37832C26.8274 0.495797 25.6305 0 24.3824 0H5.55885ZM7.32355 5.88235H22.6177C23.0857 5.88235 23.5346 6.06828 23.8655 6.39922C24.1965 6.73017 24.3824 7.17903 24.3824 7.64706C24.3824 8.11509 24.1965 8.56395 23.8655 8.89489C23.5346 9.22584 23.0857 9.41177 22.6177 9.41177H7.32355C6.85553 9.41177 6.40666 9.22584 6.07572 8.89489C5.74477 8.56395 5.55885 8.11509 5.55885 7.64706C5.55885 7.17903 5.74477 6.73017 6.07572 6.39922C6.40666 6.06828 6.85553 5.88235 7.32355 5.88235ZM36.1471 29.4118C36.1471 32.2199 35.0315 34.9131 33.0459 36.8988C31.0602 38.8845 28.367 40 25.5588 40C22.7507 40 20.0575 38.8845 18.0718 36.8988C16.0862 34.9131 14.9706 32.2199 14.9706 29.4118C14.9706 26.6036 16.0862 23.9104 18.0718 21.9248C20.0575 19.9391 22.7507 18.8235 25.5588 18.8235C28.367 18.8235 31.0602 19.9391 33.0459 21.9248C35.0315 23.9104 36.1471 26.6036 36.1471 29.4118ZM24.4294 24.7859C24.277 24.6807 24.0997 24.6173 23.9152 24.602C23.7306 24.5867 23.5453 24.6201 23.3777 24.6988C23.2411 24.7596 23.1173 24.8458 23.013 24.9529C22.9034 25.0634 22.8168 25.1946 22.7582 25.3388C22.6996 25.4829 22.6703 25.6373 22.6718 25.7929V33.0282C22.67 33.1843 22.6992 33.3391 22.7578 33.4837C22.8163 33.6283 22.9031 33.7598 23.013 33.8706C23.1214 33.9761 23.2462 34.0635 23.3824 34.1294C23.6211 34.2388 23.892 34.2556 24.1424 34.1765C24.2511 34.1414 24.3542 34.0907 24.4483 34.0259L29.8506 30.3388C30.0149 30.2304 30.1473 30.0802 30.2341 29.9035C30.3228 29.7253 30.3684 29.5288 30.3671 29.3297C30.3659 29.1307 30.3179 28.9347 30.2271 28.7576C30.134 28.5843 29.9989 28.437 29.8341 28.3294L24.4294 24.7859Z" fill="#F8F8F8"/>
</svg>
