<svg width="29" height="24" viewBox="0 0 29 24" fill="none" xmlns="http://www.w3.org/2000/svg">
<mask id="path-1-inside-1_9_225" fill="white">
<path d="M16.5128 9.93489C16.401 9.93413 16.2934 9.97765 16.2135 10.0559C16.1336 10.1342 16.088 10.2409 16.0865 10.3528V13.4757C16.088 13.5878 16.1338 13.6947 16.214 13.773C16.2942 13.8514 16.4022 13.8947 16.5142 13.8936H25.9211C26.0332 13.8947 26.1412 13.8514 26.2214 13.773C26.3015 13.6947 26.3474 13.5878 26.3489 13.4757V10.3528C26.3474 10.2407 26.3015 10.1338 26.2214 10.0554C26.1412 9.9771 26.0332 9.93375 25.9211 9.93489H16.5128ZM22.2815 0.00141187C23.5832 0.0635314 24.5192 0.32048 25.1122 0.865438C25.6981 1.40475 25.9988 2.18548 26.0581 3.21892V6.17948C26.0551 6.43161 25.9522 6.67224 25.7719 6.84854C25.5916 7.02484 25.3488 7.12238 25.0966 7.11974C24.9717 7.12123 24.8476 7.0981 24.7316 7.05165C24.6156 7.0052 24.5099 6.93636 24.4204 6.84904C24.331 6.76173 24.2597 6.65766 24.2105 6.54278C24.1613 6.42789 24.1352 6.30444 24.1338 6.17948L24.1352 3.27257C24.1041 2.73608 23.9756 2.4029 23.7921 2.23348C23.6142 2.06971 23.0721 1.92288 22.2349 1.88053H3.7741C3.01596 1.90876 2.52324 2.05277 2.28465 2.25748C2.10111 2.41419 1.96275 2.8462 1.96134 3.59305L1.95711 20.21C2.0277 20.9357 2.18723 21.4199 2.39194 21.6614C2.54724 21.8449 3.02867 22.0284 3.73739 22.1188H22.2547C23.1215 22.1357 23.6326 22.0058 23.8048 21.8322C23.9954 21.6388 24.1338 21.1305 24.1338 20.299V17.4118C24.1338 16.8937 24.5644 16.4716 25.0966 16.4716C25.6275 16.4716 26.0581 16.8937 26.0581 17.4118V20.299C26.0581 21.5696 25.7983 22.5197 25.1898 23.1367C24.563 23.772 23.5662 24.0261 22.2349 23.9979L3.62304 23.9937C2.35665 23.8468 1.44886 23.4995 0.908133 22.86C0.418236 22.2811 0.145757 21.4552 0.0370483 20.3004V3.59164C0.039872 2.35489 0.336351 1.42451 1.01684 0.842849C1.64086 0.306362 2.54159 0.0451778 3.73739 0L22.2815 0.00141187ZM25.9211 8.05436C27.22 8.05436 28.2732 9.08357 28.2732 10.3528V13.4757C28.2732 14.7449 27.22 15.7741 25.9211 15.7741H16.5142C15.2154 15.7741 14.1622 14.7435 14.1622 13.4757V10.3528C14.1622 9.08357 15.2154 8.05436 16.5142 8.05436H25.9211ZM18.8663 10.7933C18.2169 10.7933 17.6903 11.3015 17.6903 11.9269C17.6903 12.5524 18.2169 13.0606 18.8663 13.0606C19.5157 13.0606 20.0424 12.5524 20.0424 11.9269C20.0424 11.3015 19.5157 10.7919 18.8663 10.7919"/>
</mask>
<path d="M16.5128 9.93489L16.5061 10.9349H16.5128V9.93489ZM16.0865 10.3528L15.0865 10.3395V10.3528H16.0865ZM16.0865 13.4757H15.0864L15.0866 13.489L16.0865 13.4757ZM16.5142 13.8936V12.8935L16.5042 12.8936L16.5142 13.8936ZM25.9211 13.8936L25.9312 12.8936H25.9211V13.8936ZM26.3489 13.4757L27.3489 13.489V13.4757H26.3489ZM26.3489 10.3528H27.349L27.3488 10.3395L26.3489 10.3528ZM25.9211 9.93489V10.9349L25.9312 10.9348L25.9211 9.93489ZM22.2815 0.00141187L22.3291 -0.997451L22.3054 -0.998586L22.2816 -0.998588L22.2815 0.00141187ZM25.1122 0.865438L25.7894 0.129683L25.7888 0.129157L25.1122 0.865438ZM26.0581 3.21892H27.0581V3.19025L27.0564 3.16164L26.0581 3.21892ZM26.0581 6.17948L27.0581 6.19129V6.17948H26.0581ZM25.0966 7.11974L25.1071 6.1198L25.0959 6.11968L25.0847 6.11981L25.0966 7.11974ZM24.1338 6.17948L23.1337 6.17899L23.1338 6.19128L24.1338 6.17948ZM24.1352 3.27257L25.1352 3.27305L25.1352 3.24389L25.1335 3.21477L24.1352 3.27257ZM23.7921 2.23348L24.4704 1.49867L24.4694 1.49778L23.7921 2.23348ZM22.2349 1.88053L22.2854 0.881804L22.2602 0.880527H22.2349V1.88053ZM3.7741 1.88053V0.880527H3.75549L3.73688 0.88122L3.7741 1.88053ZM2.28465 2.25748L2.93399 3.01798L2.93581 3.01642L2.28465 2.25748ZM1.96134 3.59305L0.961342 3.59116L0.961341 3.59279L1.96134 3.59305ZM1.95711 20.21L0.957106 20.2098L0.957093 20.2584L0.961804 20.3068L1.95711 20.21ZM2.39194 21.6614L3.15533 21.0154L3.15465 21.0146L2.39194 21.6614ZM3.73739 22.1188L3.61093 23.1108L3.67391 23.1188H3.73739V22.1188ZM22.2547 22.1188L22.2742 21.119L22.2644 21.1188H22.2547V22.1188ZM23.8048 21.8322L24.5148 22.5364L24.5171 22.5341L23.8048 21.8322ZM25.1898 23.1367L25.9016 23.839L25.9018 23.8389L25.1898 23.1367ZM22.2349 23.9979L22.2561 22.9981L22.2456 22.9979L22.2351 22.9979L22.2349 23.9979ZM3.62304 23.9937L3.50787 24.987L3.56515 24.9936L3.62281 24.9937L3.62304 23.9937ZM0.908133 22.86L1.67178 22.2143L1.67145 22.214L0.908133 22.86ZM0.0370483 20.3004H-0.962952V20.3473L-0.95855 20.3941L0.0370483 20.3004ZM0.0370483 3.59164L-0.962952 3.58935V3.59164H0.0370483ZM1.01684 0.842849L1.6666 1.603L1.66876 1.60114L1.01684 0.842849ZM3.73739 0L3.73747 -1L3.71855 -1L3.69964 -0.999287L3.73739 0ZM16.5196 8.93491C16.1437 8.93237 15.782 9.07863 15.5135 9.34177L16.9135 10.7701C16.8048 10.8767 16.6583 10.9359 16.5061 10.9349L16.5196 8.93491ZM15.5135 9.34177C15.245 9.60492 15.0916 9.96358 15.0866 10.3395L17.0864 10.3661C17.0844 10.5183 17.0222 10.6635 16.9135 10.7701L15.5135 9.34177ZM15.0865 10.3528V13.4757H17.0865V10.3528H15.0865ZM15.0866 13.489C15.0916 13.8657 15.2457 14.2251 15.5152 14.4884L16.9128 13.0577C17.0219 13.1643 17.0844 13.3099 17.0864 13.4624L15.0866 13.489ZM15.5152 14.4884C15.7847 14.7516 16.1476 14.8973 16.5243 14.8935L16.5042 12.8936C16.6567 12.8921 16.8037 12.9511 16.9128 13.0577L15.5152 14.4884ZM16.5142 14.8936H25.9211V12.8936H16.5142V14.8936ZM25.911 14.8935C26.2878 14.8973 26.6506 14.7516 26.9202 14.4884L25.5226 13.0577C25.6317 12.9511 25.7786 12.8921 25.9312 12.8936L25.911 14.8935ZM26.9202 14.4884C27.1897 14.2251 27.3438 13.8657 27.3488 13.489L25.349 13.4624C25.351 13.3099 25.4134 13.1643 25.5226 13.0577L26.9202 14.4884ZM27.3489 13.4757V10.3528H25.3489V13.4757H27.3489ZM27.3488 10.3395C27.3438 9.96278 27.1897 9.6034 26.9202 9.34012L25.5226 10.7708C25.4134 10.6641 25.351 10.5186 25.349 10.3661L27.3488 10.3395ZM26.9202 9.34012C26.6506 9.07684 26.2878 8.93114 25.911 8.93494L25.9312 10.9348C25.7786 10.9364 25.6317 10.8774 25.5226 10.7708L26.9202 9.34012ZM25.9211 8.93489H16.5128V10.9349H25.9211V8.93489ZM22.2338 1.00028C23.4737 1.05945 24.1094 1.30207 24.4355 1.60172L25.7888 0.129157C24.929 -0.661107 23.6926 -0.932385 22.3291 -0.997451L22.2338 1.00028ZM24.4349 1.60119C24.7678 1.90766 25.0096 2.40378 25.0597 3.2762L27.0564 3.16164C26.9879 1.96717 26.6283 0.901833 25.7894 0.129683L24.4349 1.60119ZM25.0581 3.21892V6.17948H27.0581V3.21892H25.0581ZM25.0581 6.16766C25.0583 6.15483 25.0635 6.14258 25.0727 6.1336L26.4711 7.56348C26.8408 7.20191 27.0519 6.70838 27.058 6.19129L25.0581 6.16766ZM25.0727 6.1336C25.0819 6.12463 25.0942 6.11966 25.1071 6.1198L25.0862 8.11969C25.6033 8.1251 26.1014 7.92504 26.4711 7.56348L25.0727 6.1336ZM25.0847 6.11981C25.091 6.11974 25.0974 6.12092 25.1033 6.12328L24.3599 7.98002C24.5979 8.07528 24.8523 8.12273 25.1086 8.11967L25.0847 6.11981ZM25.1033 6.12328C25.1092 6.12565 25.1146 6.12915 25.1191 6.13359L23.7218 7.56449C23.9051 7.74356 24.122 7.88476 24.3599 7.98002L25.1033 6.12328ZM25.1191 6.13359C25.1237 6.13804 25.1273 6.14334 25.1298 6.14919L23.2912 6.93636C23.3921 7.17198 23.5384 7.38542 23.7218 7.56449L25.1191 6.13359ZM25.1298 6.14919C25.1323 6.15504 25.1336 6.16132 25.1337 6.16768L23.1338 6.19128C23.1369 6.44756 23.1903 6.70074 23.2912 6.93636L25.1298 6.14919ZM25.1338 6.17996L25.1352 3.27305L23.1352 3.27208L23.1338 6.17899L25.1338 6.17996ZM25.1335 3.21477C25.0979 2.59989 24.9449 1.9367 24.4704 1.49868L23.1138 2.96828C23.0513 2.91059 23.0535 2.8774 23.0751 2.94034C23.0964 3.0022 23.1249 3.12457 23.1369 3.33037L25.1335 3.21477ZM24.4694 1.49778C24.1791 1.23049 23.7795 1.10702 23.4923 1.03866C23.1549 0.958339 22.7467 0.905141 22.2854 0.881804L22.1844 2.87925C22.5603 2.89827 22.8417 2.93966 23.0292 2.98429C23.123 3.00662 23.1784 3.02627 23.2033 3.03677C23.2384 3.05156 23.189 3.03746 23.1148 2.96918L24.4694 1.49778ZM22.2349 0.880527H3.7741V2.88053H22.2349V0.880527ZM3.73688 0.88122C3.30727 0.89722 2.91812 0.946899 2.58036 1.03567C2.25402 1.12144 1.91107 1.26037 1.63348 1.49854L2.93581 3.01642C2.89681 3.04987 2.91953 3.01445 3.08873 2.96998C3.24651 2.92851 3.48279 2.89207 3.81132 2.87983L3.73688 0.88122ZM1.6353 1.49699C1.31554 1.77001 1.16559 2.15093 1.08715 2.45126C1.00159 2.77886 0.962152 3.16321 0.961343 3.59116L2.96134 3.59494C2.96194 3.27604 2.99239 3.07096 3.02224 2.95667C3.03686 2.90068 3.04716 2.88279 3.04307 2.89062C3.04015 2.89619 3.01042 2.95272 2.93399 3.01797L1.6353 1.49699ZM0.961341 3.59279L0.957106 20.2098L2.95711 20.2103L2.96134 3.5933L0.961341 3.59279ZM0.961804 20.3068C1.03606 21.0702 1.21569 21.8204 1.62923 22.3081L3.15465 21.0146C3.17272 21.0359 3.13285 20.9953 3.08017 20.8237C3.03063 20.6624 2.98313 20.429 2.95241 20.1132L0.961804 20.3068ZM1.62856 22.3073C1.88546 22.6109 2.2585 22.7747 2.52607 22.8686C2.83622 22.9774 3.20526 23.059 3.61093 23.1108L3.86386 21.1268C3.5608 21.0882 3.33477 21.0328 3.1882 20.9814C3.11499 20.9557 3.07587 20.936 3.06273 20.9285C3.0422 20.9168 3.09119 20.9396 3.15533 21.0154L1.62856 22.3073ZM3.73739 23.1188H22.2547V21.1188H3.73739V23.1188ZM22.2351 23.1186C22.7162 23.128 23.1378 23.098 23.4883 23.0271C23.7932 22.9655 24.2117 22.842 24.5148 22.5364L23.0948 21.128C23.1743 21.0478 23.2363 21.0257 23.2214 21.032C23.2134 21.0354 23.1742 21.0502 23.0922 21.0668C22.9273 21.1001 22.66 21.1265 22.2742 21.119L22.2351 23.1186ZM24.5171 22.5341C24.8068 22.24 24.9425 21.8471 25.0156 21.528C25.0956 21.1784 25.1338 20.7643 25.1338 20.299H23.1338C23.1338 20.6652 23.1028 20.921 23.066 21.0817C23.0478 21.1613 23.0315 21.2026 23.0257 21.2155C23.0181 21.2321 23.0335 21.1902 23.0925 21.1303L24.5171 22.5341ZM25.1338 20.299V17.4118H23.1338V20.299H25.1338ZM25.1338 17.4118C25.1338 17.4221 25.1314 17.4336 25.127 17.4437C25.123 17.453 25.1182 17.4589 25.1147 17.4624C25.1111 17.4659 25.1075 17.4682 25.1039 17.4696C25.1021 17.4704 25.1003 17.4709 25.0987 17.4712C25.0971 17.4716 25.0963 17.4716 25.0966 17.4716V15.4716C24.0335 15.4716 23.1338 16.3203 23.1338 17.4118H25.1338ZM25.0966 17.4716C25.0966 17.4716 25.0964 17.4716 25.0958 17.4715C25.0952 17.4714 25.0945 17.4713 25.0936 17.4712C25.0919 17.4708 25.0899 17.4702 25.0879 17.4694C25.0841 17.4678 25.0805 17.4655 25.077 17.4621C25.0734 17.4586 25.0688 17.4528 25.0648 17.4435C25.0604 17.4335 25.0581 17.4221 25.0581 17.4118H27.0581C27.0581 16.3212 26.1593 15.4716 25.0966 15.4716V17.4716ZM25.0581 17.4118V20.299H27.0581V17.4118H25.0581ZM25.0581 20.299C25.0581 21.4678 24.8132 22.0944 24.4778 22.4345L25.9018 23.8389C26.7834 22.945 27.0581 21.6713 27.0581 20.299H25.0581ZM24.478 22.4343C24.1421 22.7748 23.4929 23.0244 22.2561 22.9981L22.2137 24.9977C23.6395 25.0279 24.9838 24.7693 25.9016 23.839L24.478 22.4343ZM22.2351 22.9979L3.62327 22.9937L3.62281 24.9937L22.2347 24.9979L22.2351 22.9979ZM3.73821 23.0003C2.55681 22.8633 1.96485 22.561 1.67178 22.2143L0.144491 23.5056C0.93286 24.4381 2.15649 24.8303 3.50787 24.987L3.73821 23.0003ZM1.67145 22.214C1.37136 21.8594 1.13276 21.2702 1.03265 20.2067L-0.95855 20.3941C-0.841245 21.6403 -0.534887 22.7029 0.144818 23.506L1.67145 22.214ZM1.03705 20.3004V3.59164H-0.962952V20.3004H1.03705ZM1.03705 3.59392C1.03957 2.4881 1.30612 1.91111 1.66659 1.603L0.367091 0.0827021C-0.633421 0.937912 -0.959827 2.22168 -0.962949 3.58935L1.03705 3.59392ZM1.66876 1.60114C2.04707 1.2759 2.68315 1.04054 3.77515 0.999287L3.69964 -0.999287C2.40004 -0.950188 1.23465 -0.663172 0.364921 0.0845616L1.66876 1.60114ZM3.73732 1L22.2814 1.00141L22.2816 -0.998588L3.73747 -1L3.73732 1ZM25.9211 9.05436C26.6896 9.05436 27.2732 9.65747 27.2732 10.3528H29.2732C29.2732 8.50966 27.7504 7.05436 25.9211 7.05436V9.05436ZM27.2732 10.3528V13.4757H29.2732V10.3528H27.2732ZM27.2732 13.4757C27.2732 14.171 26.6896 14.7741 25.9211 14.7741V16.7741C27.7504 16.7741 29.2732 15.3188 29.2732 13.4757H27.2732ZM25.9211 14.7741H16.5142V16.7741H25.9211V14.7741ZM16.5142 14.7741C15.7462 14.7741 15.1622 14.17 15.1622 13.4757H13.1622C13.1622 15.317 14.6846 16.7741 16.5142 16.7741V14.7741ZM15.1622 13.4757V10.3528H13.1622V13.4757H15.1622ZM15.1622 10.3528C15.1622 9.65747 15.7458 9.05436 16.5142 9.05436V7.05436C14.685 7.05436 13.1622 8.50966 13.1622 10.3528H15.1622ZM16.5142 9.05436H25.9211V7.05436H16.5142V9.05436ZM18.8663 9.79326C17.6991 9.79326 16.6903 10.7153 16.6903 11.9269H18.6903C18.6903 11.9026 18.699 11.8742 18.7289 11.8454C18.7594 11.816 18.8061 11.7933 18.8663 11.7933V9.79326ZM16.6903 11.9269C16.6903 13.1386 17.6991 14.0606 18.8663 14.0606V12.0606C18.8061 12.0606 18.7594 12.0379 18.7289 12.0085C18.699 11.9797 18.6903 11.9513 18.6903 11.9269H16.6903ZM18.8663 14.0606C20.0335 14.0606 21.0424 13.1386 21.0424 11.9269H19.0424C19.0424 11.9513 19.0336 11.9797 19.0037 12.0085C18.9733 12.0379 18.9266 12.0606 18.8663 12.0606V14.0606ZM21.0424 11.9269C21.0424 10.7169 20.0351 9.79185 18.8663 9.79185V11.7919C18.9257 11.7919 18.9723 11.8143 19.0031 11.8441C19.0334 11.8734 19.0424 11.9024 19.0424 11.9269H21.0424Z" fill="black" mask="url(#path-1-inside-1_9_225)"/>
</svg>
