<svg clip-rule="evenodd" fill-rule="evenodd" stroke-linejoin="round" stroke-miterlimit="2" viewBox="0 0 32 32" xmlns="http://www.w3.org/2000/svg"><g transform="translate(-384)"><g transform="matrix(.563 0 0 .563 182 9.313)"><path d="m396.681 22.801c1.053-.159 2.167-.245 3.319-.245 3.949 0 7.438 1.013 9.609 2.493 1.864 1.271 2.835 2.922 2.835 4.618 0 1.695-.971 3.346-2.835 4.617-2.171 1.481-5.66 2.494-9.609 2.494-2.22 0-4.295-.321-6.073-.864.391-.298.75-.605 1.075-.919 2.18-2.101 3.22-4.577 3.22-7.106 0-1.758-.502-3.49-1.541-5.088zm3.319-17.579c4.293 0 7.778 3.485 7.778 7.778s-3.485 7.778-7.778 7.778-7.778-3.485-7.778-7.778 3.485-7.778 7.778-7.778zm-8.268-9.761c-.745-.639-.831-1.762-.193-2.507.639-.745 1.762-.831 2.507-.193l4.917 4.215 8.615-9.4c.663-.723 1.789-.772 2.512-.109s.772 1.789.109 2.512l-9.777 10.667c-.648.707-1.74.772-2.468.148zm-13.065.428c5.396 0 9.777 4.381 9.777 9.778 0 5.396-4.381 9.777-9.777 9.777-5.397 0-9.778-4.381-9.778-9.777 0-5.397 4.381-9.778 9.778-9.778zm0 23.111c5.126 0 9.66 1.3 12.478 3.222 2.296 1.565 3.522 3.579 3.522 5.667s-1.226 4.102-3.522 5.667c-2.818 1.922-7.352 3.222-12.478 3.222s-9.661-1.3-12.479-3.222c-2.295-1.565-3.521-3.579-3.521-5.667s1.226-4.102 3.521-5.667c2.818-1.922 7.353-3.222 12.479-3.222z"/></g></g></svg>