<svg viewBox="0 0 32 32" xmlns="http://www.w3.org/2000/svg"><g id="Layer_2" data-name="Layer 2"><path d="m30 26v2a2 2 0 0 1 -2 2h-24a2 2 0 0 1 -2-2v-2a2 2 0 0 1 2-2h24a2 2 0 0 1 2 2zm-14-18a1 1 0 1 0 1 1 1 1 0 0 0 -1-1zm14 2.6v2.4a2.006 2.006 0 0 1 -2 2h-24a2.006 2.006 0 0 1 -2-2v-2.4a1.989 1.989 0 0 1 1.05-1.76l12.48-6.72a.98.98 0 0 1 .94 0l12.48 6.72a1.989 1.989 0 0 1 1.05 1.76zm-11-1.6a3 3 0 1 0 -3 3 3.009 3.009 0 0 0 3-3zm-4 8v5h2v-5zm5 0v5h2v-5zm-10 0v5h2v-5zm15 0v5h2v-5zm-20 0v5h2v-5z"/></g></svg>