<svg clip-rule="evenodd" fill-rule="evenodd" height="512" stroke-linejoin="round" stroke-miterlimit="2" viewBox="0 0 32 32" width="512" xmlns="http://www.w3.org/2000/svg"><g id="ICON"><g transform="matrix(.5 0 0 1 4.5 4)"><path d="m7 15h2c1.104 0 2-.448 2-1s-.896-1-2-1h-2c-1.104 0-2 .448-2 1s.896 1 2 1z"/></g><g transform="matrix(.5 0 0 1 4.5 8)"><path d="m7 15h2c1.104 0 2-.448 2-1s-.896-1-2-1h-2c-1.104 0-2 .448-2 1s.896 1 2 1z"/></g><g transform="matrix(.5 0 0 1 9.5 4)"><path d="m7 15h2c1.104 0 2-.448 2-1s-.896-1-2-1h-2c-1.104 0-2 .448-2 1s.896 1 2 1z"/></g><g transform="matrix(.5 0 0 1 9.5 0)"><path d="m7 15h2c1.104 0 2-.448 2-1s-.896-1-2-1h-2c-1.104 0-2 .448-2 1s.896 1 2 1z"/></g><g transform="matrix(.5 0 0 1 9.5 8)"><path d="m7 15h2c1.104 0 2-.448 2-1s-.896-1-2-1h-2c-1.104 0-2 .448-2 1s.896 1 2 1z"/></g><g transform="matrix(.5 0 0 1 14.5 0)"><path d="m7 15h2c1.104 0 2-.448 2-1s-.896-1-2-1h-2c-1.104 0-2 .448-2 1s.896 1 2 1z"/></g><g transform="matrix(.5 0 0 1 19.5 0)"><path d="m7 15h2c1.104 0 2-.448 2-1s-.896-1-2-1h-2c-1.104 0-2 .448-2 1s.896 1 2 1z"/></g><path d="m15.804 27c1.038 1.793 2.977 3 5.196 3s4.158-1.207 5.196-3h1.604c1.215 0 2.2-.985 2.2-2.2v-17.6c0-1.215-.985-2.2-2.2-2.2h-1.8v-1c0-.552-.448-1-1-1s-1 .448-1 1v1h-7v-1c0-.552-.448-1-1-1s-1 .448-1 1v1h-7v-1c0-.552-.448-1-1-1s-1 .448-1 1v1h-1.8c-1.215 0-2.2.985-2.2 2.2v17.6c0 1.215.985 2.2 2.2 2.2zm4.196-5v1.697s-.673 1.01-.673 1.01c-.306.459-.182 1.081.277 1.387s1.081.182 1.387-.278l.841-1.261c.11-.165.168-.358.168-.555v-2c0-.552-.448-1-1-1s-1 .448-1 1zm4.263-3.035c1.647 1.07 2.737 2.926 2.737 5.035 0 .341-.028.675-.083 1h.883c.11 0 .2-.09.2-.2v-13.8h-24v13.8c0 .11.09.2.2.2h10.883c-.055-.325-.083-.659-.083-1 0-2.109 1.09-3.965 2.737-5.035-.424-.115-.737-.504-.737-.965 0-.552.448-1 1-1h1c.552 0 1 .448 1 1 0 .028-.001.056-.003.084.326-.055.661-.084 1.003-.084s.677.029 1.003.084c-.002-.028-.003-.056-.003-.084 0-.552.448-1 1-1h1c.552 0 1 .448 1 1 0 .461-.313.85-.737.965z"/></g></svg>