<svg id="Layer_1" enable-background="new 0 0 68 68" height="512" viewBox="0 0 68 68" width="512" xmlns="http://www.w3.org/2000/svg"><g><path d="m56.05261 36.31266c-1.01601-12.64713-10.80858-22.84608-23.26217-24.49109v-3.31902h3.10616c.54188 0 .96764-.42577.96764-.96764v-4.56726c.00001-.5322-.42576-.96765-.96763-.96765h-14.04054c-.53219 0-.96764.43545-.96764.96765v4.56725c0 .54188.43545.96764.96764.96764h3.11579v3.41582c-12.81162 2.06109-22.62355 13.18901-22.62355 26.5715 0 14.83401 12.06656 26.8909 26.89089 26.8909 4.1318 0 8.01207-.96764 11.49563-2.65134 2.67065 2.09008 5.98973 3.27058 9.4926 3.27058 8.50558 0 15.42427-6.91863 15.42427-15.42421 0-6.43486-3.97707-11.96013-9.59909-14.26313zm-26.81341 27.1328c-13.75994 0-24.9556-11.19566-24.9556-24.9556 0-13.7212 11.11823-24.8878 24.81043-24.97491h.29997c12.74387.07743 23.24285 9.75388 24.64595 22.13972-.81285-.21285-1.64501-.35802-2.49654-.43545-1.58695-10.88601-10.96344-19.28516-22.29458-19.28516-12.43422 0-22.5558 10.1119-22.5558 22.54618 0 12.4439 10.12159 22.5558 22.5558 22.5558 2.95137 0 5.7575-.59999 8.32178-1.65469.49351.70636 1.0257 1.35473 1.60626 1.95466-3.03835 1.35466-6.39611 2.10945-9.93767 2.10945zm5.56396-12.86967c0 2.49648.60962 4.93497 1.75143 7.13154-1.98372.77411-4.11249 1.25793-6.33812 1.36435v-2.47717c0-.53219-.43539-.96764-.96765-.96764-.53219 0-.96764.43545-.96764.96764v2.4578c-3.04805-.14511-5.92198-.93859-8.48621-2.26426l1.23856-2.13852c.26128-.46445.10649-1.0547-.35802-1.31598-.46445-.27097-1.0547-.11612-1.32567.34834l-1.22893 2.12883c-2.4868-1.59664-4.60594-3.71579-6.20258-6.20258l2.12883-1.22893c.46445-.27097.61931-.86122.35802-1.32567-.27097-.46451-.86122-.6193-1.32567-.35802l-2.13851 1.23856c-1.32567-2.56422-2.11915-5.43816-2.26426-8.48621h2.4578c.54188 0 .96764-.43545.96764-.96764 0-.53225-.42577-.96765-.96764-.96765h-2.4578c.14511-3.0481.93859-5.92204 2.26426-8.47658l2.13852 1.22887c.4662.26236 1.05326.10078 1.32567-.35802.26128-.45477.10643-1.0547-.35802-1.31598l-2.12883-1.22893c1.59664-2.48686 3.71578-4.60594 6.20258-6.21227l1.22893 2.12883c.27298.45976.8603.61992 1.32567.35802.46451-.27097.61931-.86122.35802-1.32567l-1.23856-2.12883c2.56422-1.33536 5.43816-2.12883 8.48621-2.26426v2.4578c0 .53219.43545.96765.96764.96765.53225 0 .96765-.43545.96765-.96765v-2.46748c3.04811.14511 5.92204.93859 8.48627 2.26426l-1.23855 2.13852c-.27097.46445-.10649 1.0547.35802 1.32567.42139.25297 1.0446.12447 1.31598-.35802l1.23856-2.13852c2.48685 1.60633 4.61569 3.72547 6.21233 6.21232l-2.13852 1.23856c-.46445.26128-.6193.86122-.35802 1.31598.28566.48112.87801.60995 1.32567.35802l2.1482-1.23856c.97727 1.89655 1.66432 3.97701 2.01266 6.16389-8.20563.33867-14.77592 7.10249-14.77592 15.38559zm15.42427-.95802c2.22557 0 4.02538 1.79987 4.02538 4.02544 0 1.87724-1.3063 3.4545-3.05773 3.88989v.84191c0 .53219-.42577.96764-.96764.96764-.53225 0-.96765-.43545-.96765-.96764v-.84191c-1.75143-.43539-3.05779-2.01266-3.05779-3.88989 0-.54188.43545-.96764.96764-.96764s.96764.42577.96764.96764c0 1.1515.93865 2.0804 2.09015 2.0804s2.09008-.9289 2.09008-2.0804-.93859-2.09015-2.09008-2.09015c-2.21595 0-4.02544-1.80949-4.02544-4.03506 0-1.87723 1.30635-3.4545 3.05779-3.88995v-.84185c0-.53219.43539-.96765.96765-.96765.54188 0 .96764.43546.96764.96765v.84185c1.75143.43545 3.05773 2.01272 3.05773 3.88995 0 .54188-.43545.96765-.96764.96765s-.96765-.42577-.96765-.96765c0-1.1515-.93859-2.08046-2.09008-2.08046-1.1515 0-2.09015.92896-2.09015 2.08046 0 1.16119.93865 2.09977 2.09015 2.09977z"/><path d="m33.16489 39.45h4.11497c.53485 0 .96765-.43327.96765-.96764s-.4328-.96764-.96765-.96764h-4.11367c-.37137-1.33707-1.47675-2.36661-2.86019-2.61685v-6.73407c0-.53438-.43278-.96764-.96765-.96764-.53484 0-.96764.43327-.96764.96764v6.91313c-1.38094.52121-2.37315 1.84381-2.37315 3.4033 0 2.01266 1.64501 3.64798 3.65773 3.64798 1.67465 0 3.07987-1.13856 3.5096-2.67821z"/></g></svg>