<svg id="Layer_1" enable-background="new 0 0 512 512" height="512" viewBox="0 0 512 512" width="512" xmlns="http://www.w3.org/2000/svg"><path clip-rule="evenodd" d="m512 231.8h-144.6v-22.6h114.2c4.7 0 8.5-3.8 8.5-8.5v-109.3c0-4.7-3.9-8.5-8.5-8.5h-451.1c-4.7 0-8.5 3.8-8.5 8.5v109.2c0 4.7 3.9 8.5 8.5 8.5h114.2v22.6h-144.7v-171.4h512zm-161.6 219.9v-297.1h-22v239.9c0 4.7-3.8 8.6-8.5 8.6-10.1 0-18.3 8.2-18.3 18.3 0 4.7-3.8 8.5-8.5 8.5h-73.8c-4.7 0-8.5-3.9-8.5-8.5 0-10.1-8.2-18.3-18.3-18.3-4.7 0-8.5-3.9-8.5-8.6v-239.9h-22v297.2h188.4zm-149.6-64.7c12.7 3.1 22.6 13.1 25.8 25.8h58.8c3.1-12.7 13.1-22.6 25.8-25.8v-232.4h-110.4zm16.7-119.6h2.1c.5 12.8 10.3 23.1 22.4 23.1 12.4 0 22.4-10.9 22.4-24.2v-14.9c0-3.8 2.6-7.1 5.4-7.1 2.7 0 5.3 3.3 5.3 7.1v30.6c0 4.7 3.8 8.5 8.5 8.5s8.5-3.8 8.5-8.5v-14.6h2.1c4.7 0 8.5-3.9 8.5-8.5 0-4.7-3.8-8.5-8.5-8.5h-2.1c-.5-12.9-10.3-23.2-22.4-23.2-12.4 0-22.4 10.9-22.4 24.2v14.9c0 3.9-2.4 7.1-5.3 7.1-2.8 0-5.3-3.3-5.3-7.1v-30.6c0-4.7-3.8-8.5-8.5-8.5s-8.5 3.9-8.5 8.5v14.5h-2.1c-4.7 0-8.5 3.8-8.5 8.5s3.8 8.5 8.5 8.5v.2zm150-112.8v37.5h105.6v-92.1h-434.1v92.2h105.6v-37.5h-34.1c-4.7 0-8.6-3.9-8.6-8.5 0-4.7 3.9-8.6 8.6-8.6h291c4.7 0 8.5 3.9 8.5 8.6s-3.9 8.5-8.5 8.5h-34.1.1z" fill-rule="evenodd"/></svg>